<svg width="33" height="32" viewBox="0 0 33 32" fill="none" xmlns="http://www.w3.org/2000/svg">
<path fill-rule="evenodd" clip-rule="evenodd" d="M24.6929 6.61308C23.8036 5.69127 22.312 5.64316 21.3613 6.50563C20.4107 7.36809 20.3611 8.81452 21.2506 9.73632L27.2943 16.0001L21.2506 22.2638C20.3611 23.1856 20.4107 24.632 21.3613 25.4944C22.312 26.3571 23.8036 26.3088 24.6929 25.387L32.2434 17.5617C33.0912 16.6829 33.0912 15.3172 32.2434 14.4384L24.6929 6.61308ZM11.7495 9.73639C12.6389 8.81458 12.5893 7.36816 11.6387 6.50569C10.6881 5.64323 9.19643 5.69134 8.30701 6.61315L0.756606 14.4385C-0.0912727 15.3173 -0.0912727 16.683 0.756606 17.5618L8.30701 25.3872C9.19643 26.3088 10.6881 26.3571 11.6387 25.4947C12.5893 24.632 12.6389 23.1856 11.7495 22.2639L5.70583 16.0001L11.7495 9.73639Z" fill="#706563"/>
</svg>
