<svg width="31" height="35" viewBox="0 0 31 35" fill="none" xmlns="http://www.w3.org/2000/svg">
<g filter="url(#filter0_d_35_3)">
<path d="M20.6667 11C22.7221 11 24.6934 11.9482 26.1468 13.636C27.6002 15.3239 28.4167 17.6131 28.4167 20V30.5H23.25V20C23.25 19.2044 22.9779 18.4413 22.4934 17.8787C22.0089 17.3161 21.3518 17 20.6667 17C19.9816 17 19.3245 17.3161 18.84 17.8787C18.3555 18.4413 18.0834 19.2044 18.0834 20V30.5H12.9167V20C12.9167 17.6131 13.7332 15.3239 15.1866 13.636C16.64 11.9482 18.6113 11 20.6667 11Z" stroke="#1E1E1E" stroke-width="4" stroke-linecap="round" stroke-linejoin="round" shape-rendering="crispEdges"/>
<path d="M7.75004 12.5H2.58337V30.5H7.75004V12.5Z" stroke="#1E1E1E" stroke-width="4" stroke-linecap="round" stroke-linejoin="round" shape-rendering="crispEdges"/>
<path d="M5.16671 8C6.59344 8 7.75004 6.65685 7.75004 5C7.75004 3.34315 6.59344 2 5.16671 2C3.73997 2 2.58337 3.34315 2.58337 5C2.58337 6.65685 3.73997 8 5.16671 8Z" stroke="#1E1E1E" stroke-width="4" stroke-linecap="round" stroke-linejoin="round" shape-rendering="crispEdges"/>
</g>
<defs>
<filter id="filter0_d_35_3" x="-3.41663" y="0" width="37.8334" height="40.5" filterUnits="userSpaceOnUse" color-interpolation-filters="sRGB">
<feFlood flood-opacity="0" result="BackgroundImageFix"/>
<feColorMatrix in="SourceAlpha" type="matrix" values="0 0 0 0 0 0 0 0 0 0 0 0 0 0 0 0 0 0 127 0" result="hardAlpha"/>
<feOffset dy="4"/>
<feGaussianBlur stdDeviation="2"/>
<feComposite in2="hardAlpha" operator="out"/>
<feColorMatrix type="matrix" values="0 0 0 0 0 0 0 0 0 0 0 0 0 0 0 0 0 0 0.25 0"/>
<feBlend mode="normal" in2="BackgroundImageFix" result="effect1_dropShadow_35_3"/>
<feBlend mode="normal" in="SourceGraphic" in2="effect1_dropShadow_35_3" result="shape"/>
</filter>
</defs>
</svg>
